<mxfile host="65bd71144e">
    <diagram id="emvvtYQxzRHmPXdrn84x" name="Page-1">
        <mxGraphModel dx="5565" dy="-465" grid="1" gridSize="10" guides="1" tooltips="1" connect="1" arrows="1" fold="1" page="1" pageScale="1" pageWidth="850" pageHeight="1100" math="0" shadow="0">
            <root>
                <mxCell id="0"/>
                <mxCell id="1" parent="0"/>
                <mxCell id="8" value="&lt;font style=&quot;font-size: 48px;&quot;&gt;Transaction Logs&lt;/font&gt;" style="rounded=0;whiteSpace=wrap;html=1;fontSize=24;" parent="1" vertex="1">
                    <mxGeometry x="-470" y="7100" width="792.3" height="200" as="geometry"/>
                </mxCell>
                <mxCell id="9" value="" style="endArrow=none;html=1;fontSize=24;entryX=0.16;entryY=0.998;entryDx=0;entryDy=0;entryPerimeter=0;fontStyle=1;exitX=0.16;exitY=0;exitDx=0;exitDy=0;exitPerimeter=0;" parent="1" source="8" target="8" edge="1">
                    <mxGeometry width="50" height="50" relative="1" as="geometry">
                        <mxPoint x="-906" y="7360" as="sourcePoint"/>
                        <mxPoint x="-508.28000000000003" y="2930.58" as="targetPoint"/>
                    </mxGeometry>
                </mxCell>
                <mxCell id="632" value="&lt;span style=&quot;background-color: rgb(42, 37, 47);&quot;&gt;&lt;font style=&quot;font-size: 48px;&quot;&gt;D3&lt;/font&gt;&lt;/span&gt;" style="edgeLabel;html=1;align=center;verticalAlign=middle;resizable=0;points=[];fontSize=36;" parent="9" vertex="1" connectable="0">
                    <mxGeometry x="-0.5352" y="-1" relative="1" as="geometry">
                        <mxPoint x="-49" y="54" as="offset"/>
                    </mxGeometry>
                </mxCell>
                <mxCell id="13" value="" style="rounded=0;whiteSpace=wrap;html=1;fontSize=24;" parent="1" vertex="1">
                    <mxGeometry x="-80" y="6840" width="780" height="170" as="geometry"/>
                </mxCell>
                <mxCell id="14" value="" style="endArrow=none;html=1;fontSize=24;exitX=0.155;exitY=-0.002;exitDx=0;exitDy=0;exitPerimeter=0;entryX=0.152;entryY=1.011;entryDx=0;entryDy=0;entryPerimeter=0;fontStyle=1" parent="1" source="13" target="13" edge="1">
                    <mxGeometry width="50" height="50" relative="1" as="geometry">
                        <mxPoint x="207.34" y="7071.400000000001" as="sourcePoint"/>
                        <mxPoint x="257.34" y="7021.400000000001" as="targetPoint"/>
                    </mxGeometry>
                </mxCell>
                <mxCell id="638" value="&lt;font style=&quot;font-size: 48px;&quot;&gt;D2&lt;/font&gt;" style="edgeLabel;html=1;align=center;verticalAlign=middle;resizable=0;points=[];fontSize=36;" parent="14" vertex="1" connectable="0">
                    <mxGeometry x="-0.3194" y="3" relative="1" as="geometry">
                        <mxPoint x="-53" y="21" as="offset"/>
                    </mxGeometry>
                </mxCell>
                <mxCell id="639" value="&lt;font style=&quot;font-size: 48px;&quot;&gt;Registration Cards Storage&lt;/font&gt;" style="edgeLabel;html=1;align=center;verticalAlign=middle;resizable=0;points=[];fontSize=36;" parent="14" vertex="1" connectable="0">
                    <mxGeometry x="-0.7975" y="3" relative="1" as="geometry">
                        <mxPoint x="306" y="63" as="offset"/>
                    </mxGeometry>
                </mxCell>
                <mxCell id="255" style="edgeStyle=none;html=1;fontSize=30;startArrow=none;fontStyle=1;exitX=0.25;exitY=1;exitDx=0;exitDy=0;entryX=0.278;entryY=-0.003;entryDx=0;entryDy=0;entryPerimeter=0;" parent="1" source="420" target="8" edge="1">
                    <mxGeometry relative="1" as="geometry">
                        <Array as="points">
                            <mxPoint x="88" y="6670"/>
                            <mxPoint x="-250" y="6920"/>
                        </Array>
                    </mxGeometry>
                </mxCell>
                <mxCell id="433" value="&lt;font style=&quot;font-size: 36px;&quot;&gt;Customer Transaction &lt;br&gt;Payment Details&lt;/font&gt;" style="edgeLabel;html=1;align=center;verticalAlign=middle;resizable=0;points=[];fontSize=24;" parent="255" vertex="1" connectable="0">
                    <mxGeometry x="-0.6191" y="5" relative="1" as="geometry">
                        <mxPoint x="-23" y="58" as="offset"/>
                    </mxGeometry>
                </mxCell>
                <mxCell id="399" style="edgeStyle=none;html=1;fontSize=24;entryX=0.416;entryY=-0.006;entryDx=0;entryDy=0;exitX=0;exitY=0;exitDx=0;exitDy=140;exitPerimeter=0;fontStyle=1;entryPerimeter=0;" parent="1" source="348" target="401" edge="1">
                    <mxGeometry relative="1" as="geometry">
                        <mxPoint x="-170" y="4320" as="targetPoint"/>
                        <Array as="points">
                            <mxPoint x="-920" y="3770"/>
                        </Array>
                    </mxGeometry>
                </mxCell>
                <mxCell id="411" value="&lt;font style=&quot;font-size: 36px;&quot;&gt;If Customer has a VALID registration card&lt;/font&gt;" style="edgeLabel;html=1;align=center;verticalAlign=middle;resizable=0;points=[];fontSize=24;" parent="399" vertex="1" connectable="0">
                    <mxGeometry x="-0.4418" y="-1" relative="1" as="geometry">
                        <mxPoint x="16" y="227" as="offset"/>
                    </mxGeometry>
                </mxCell>
                <mxCell id="409" style="edgeStyle=none;html=1;fontSize=24;exitX=0;exitY=0.278;exitDx=0;exitDy=0;exitPerimeter=0;fontStyle=1;entryX=0.25;entryY=0;entryDx=0;entryDy=0;" parent="1" source="348" target="407" edge="1">
                    <mxGeometry relative="1" as="geometry">
                        <Array as="points">
                            <mxPoint x="-1560" y="3840"/>
                            <mxPoint x="-1630" y="5620"/>
                            <mxPoint x="-1370" y="6130"/>
                        </Array>
                        <mxPoint x="-1430" y="6790" as="targetPoint"/>
                    </mxGeometry>
                </mxCell>
                <mxCell id="410" value="&lt;font style=&quot;font-size: 48px;&quot;&gt;Identification&lt;br&gt;&amp;nbsp;Information&lt;/font&gt;" style="edgeLabel;html=1;align=center;verticalAlign=middle;resizable=0;points=[];fontSize=24;" parent="409" vertex="1" connectable="0">
                    <mxGeometry x="-0.0005" y="-3" relative="1" as="geometry">
                        <mxPoint x="147" y="1055" as="offset"/>
                    </mxGeometry>
                </mxCell>
                <mxCell id="653" value="Identification&lt;br&gt;&amp;nbsp;Information" style="edgeLabel;html=1;align=center;verticalAlign=middle;resizable=0;points=[];fontSize=48;" vertex="1" connectable="0" parent="409">
                    <mxGeometry x="-0.8489" y="6" relative="1" as="geometry">
                        <mxPoint x="-75" y="-30" as="offset"/>
                    </mxGeometry>
                </mxCell>
                <mxCell id="348" value="&lt;font style=&quot;font-size: 72px;&quot;&gt;CUSTOMER&lt;/font&gt;" style="shape=cube;whiteSpace=wrap;html=1;boundedLbl=1;backgroundOutline=1;darkOpacity=0.05;darkOpacity2=0.1;" parent="1" vertex="1">
                    <mxGeometry x="-760" y="3560" width="580.31" height="300" as="geometry"/>
                </mxCell>
                <mxCell id="374" style="edgeStyle=none;html=1;entryX=0.065;entryY=-0.007;entryDx=0;entryDy=0;fontSize=24;exitX=0.5;exitY=1;exitDx=0;exitDy=0;fontStyle=1;entryPerimeter=0;" parent="1" source="376" target="390" edge="1">
                    <mxGeometry relative="1" as="geometry">
                        <Array as="points">
                            <mxPoint x="-1345" y="5110"/>
                            <mxPoint x="-1340" y="5510"/>
                        </Array>
                    </mxGeometry>
                </mxCell>
                <mxCell id="375" value="&lt;font style=&quot;font-size: 36px;&quot;&gt;Transaction ID and Room ID&amp;nbsp;to &lt;br&gt;Update with&amp;nbsp;CHECK-IN Date&lt;/font&gt;" style="edgeLabel;html=1;align=center;verticalAlign=middle;resizable=0;points=[];fontSize=24;" parent="374" vertex="1" connectable="0">
                    <mxGeometry x="-0.5015" y="5" relative="1" as="geometry">
                        <mxPoint x="40" y="303" as="offset"/>
                    </mxGeometry>
                </mxCell>
                <mxCell id="376" value="&lt;font style=&quot;font-size: 36px;&quot;&gt;Customer&lt;br&gt;Check-in&lt;/font&gt;" style="rounded=1;whiteSpace=wrap;html=1;fontSize=24;" parent="1" vertex="1">
                    <mxGeometry x="-1500" y="4560" width="310" height="230" as="geometry"/>
                </mxCell>
                <mxCell id="377" value="" style="endArrow=none;html=1;fontSize=24;exitX=0;exitY=0.25;exitDx=0;exitDy=0;entryX=1;entryY=0.25;entryDx=0;entryDy=0;fontStyle=1" parent="1" source="376" target="376" edge="1">
                    <mxGeometry width="50" height="50" relative="1" as="geometry">
                        <mxPoint x="1349.3600000000001" y="5049.82" as="sourcePoint"/>
                        <mxPoint x="1399.3600000000001" y="4999.82" as="targetPoint"/>
                    </mxGeometry>
                </mxCell>
                <mxCell id="524" value="&lt;font style=&quot;font-size: 36px;&quot;&gt;13.1&lt;/font&gt;" style="edgeLabel;html=1;align=center;verticalAlign=middle;resizable=0;points=[];fontSize=24;" parent="377" vertex="1" connectable="0">
                    <mxGeometry x="-0.2456" y="2" relative="1" as="geometry">
                        <mxPoint x="-57" y="-25" as="offset"/>
                    </mxGeometry>
                </mxCell>
                <mxCell id="378" style="edgeStyle=none;html=1;entryX=0.521;entryY=0;entryDx=0;entryDy=0;fontSize=24;startArrow=none;exitX=0.25;exitY=1;exitDx=0;exitDy=0;fontStyle=1;entryPerimeter=0;" parent="1" source="380" target="390" edge="1">
                    <mxGeometry relative="1" as="geometry">
                        <mxPoint x="-210" y="4710" as="sourcePoint"/>
                        <Array as="points">
                            <mxPoint x="-1000" y="5370"/>
                        </Array>
                    </mxGeometry>
                </mxCell>
                <mxCell id="616" value="&lt;font style=&quot;font-size: 36px;&quot;&gt;Transaction ID and Room ID&amp;nbsp;&lt;br&gt;to Update with&amp;nbsp;CHECK-OUT Date&lt;/font&gt;" style="edgeLabel;html=1;align=center;verticalAlign=middle;resizable=0;points=[];fontSize=36;" parent="378" vertex="1" connectable="0">
                    <mxGeometry x="-0.4544" y="1" relative="1" as="geometry">
                        <mxPoint x="23" y="-28" as="offset"/>
                    </mxGeometry>
                </mxCell>
                <mxCell id="381" value="" style="endArrow=none;html=1;fontSize=24;exitX=0;exitY=0.25;exitDx=0;exitDy=0;entryX=1;entryY=0.25;entryDx=0;entryDy=0;fontStyle=1" parent="1" source="380" target="380" edge="1">
                    <mxGeometry width="50" height="50" relative="1" as="geometry">
                        <mxPoint x="1349.3600000000001" y="5249.82" as="sourcePoint"/>
                        <mxPoint x="1399.3600000000001" y="5199.82" as="targetPoint"/>
                    </mxGeometry>
                </mxCell>
                <mxCell id="382" style="edgeStyle=none;html=1;entryX=0.388;entryY=1.017;entryDx=0;entryDy=0;fontSize=24;exitX=0.5;exitY=0;exitDx=0;exitDy=0;fontStyle=1;entryPerimeter=0;" parent="1" source="384" target="390" edge="1">
                    <mxGeometry relative="1" as="geometry">
                        <Array as="points"/>
                    </mxGeometry>
                </mxCell>
                <mxCell id="383" value="&lt;font style=&quot;font-size: 36px;&quot;&gt;Transaction ID &lt;br&gt;to cancel&lt;br&gt;and ROOM ID &lt;br&gt;to update&lt;/font&gt;" style="edgeLabel;html=1;align=center;verticalAlign=middle;resizable=0;points=[];fontSize=24;" parent="382" vertex="1" connectable="0">
                    <mxGeometry x="-0.4936" relative="1" as="geometry">
                        <mxPoint x="-38" y="-128" as="offset"/>
                    </mxGeometry>
                </mxCell>
                <mxCell id="384" value="&lt;font style=&quot;font-size: 36px;&quot;&gt;Customer&lt;br&gt;Reservation&lt;br&gt;Cancellation&lt;/font&gt;" style="rounded=1;whiteSpace=wrap;html=1;fontSize=24;" parent="1" vertex="1">
                    <mxGeometry x="-1240" y="6210" width="290" height="300" as="geometry"/>
                </mxCell>
                <mxCell id="385" value="" style="endArrow=none;html=1;fontSize=24;exitX=0;exitY=0.25;exitDx=0;exitDy=0;entryX=1;entryY=0.25;entryDx=0;entryDy=0;fontStyle=1" parent="1" source="384" target="384" edge="1">
                    <mxGeometry width="50" height="50" relative="1" as="geometry">
                        <mxPoint x="1349.3600000000001" y="5439.82" as="sourcePoint"/>
                        <mxPoint x="1399.3600000000001" y="5389.82" as="targetPoint"/>
                    </mxGeometry>
                </mxCell>
                <mxCell id="528" value="&lt;font style=&quot;font-size: 36px;&quot;&gt;13.4&lt;/font&gt;" style="edgeLabel;html=1;align=center;verticalAlign=middle;resizable=0;points=[];fontSize=24;" parent="385" vertex="1" connectable="0">
                    <mxGeometry x="-0.6994" y="-2" relative="1" as="geometry">
                        <mxPoint x="15" y="-37" as="offset"/>
                    </mxGeometry>
                </mxCell>
                <mxCell id="386" style="edgeStyle=none;html=1;entryX=0.636;entryY=0.005;entryDx=0;entryDy=0;fontSize=24;exitX=0.433;exitY=1.001;exitDx=0;exitDy=0;fontStyle=1;entryPerimeter=0;exitPerimeter=0;" parent="1" source="388" target="390" edge="1">
                    <mxGeometry relative="1" as="geometry">
                        <Array as="points">
                            <mxPoint x="-170" y="5130"/>
                            <mxPoint x="-820" y="5270"/>
                            <mxPoint x="-910" y="5410"/>
                        </Array>
                    </mxGeometry>
                </mxCell>
                <mxCell id="387" value="&lt;font style=&quot;font-size: 36px;&quot;&gt;Available Days or Hours &lt;br&gt;to&amp;nbsp;Extend current&amp;nbsp;&lt;br&gt;Stay Duration and Room ID&lt;/font&gt;" style="edgeLabel;html=1;align=center;verticalAlign=middle;resizable=0;points=[];fontSize=24;" parent="386" vertex="1" connectable="0">
                    <mxGeometry x="0.4549" y="4" relative="1" as="geometry">
                        <mxPoint x="545" y="-227" as="offset"/>
                    </mxGeometry>
                </mxCell>
                <mxCell id="388" value="&lt;font style=&quot;font-size: 36px;&quot;&gt;Customer&amp;nbsp;Room Stay &lt;br&gt;Duration Extention&lt;/font&gt;" style="rounded=1;whiteSpace=wrap;html=1;fontSize=24;" parent="1" vertex="1">
                    <mxGeometry x="-450" y="4630" width="638.52" height="210" as="geometry"/>
                </mxCell>
                <mxCell id="389" value="" style="endArrow=none;html=1;fontSize=24;exitX=0;exitY=0.25;exitDx=0;exitDy=0;entryX=1;entryY=0.25;entryDx=0;entryDy=0;fontStyle=1" parent="1" source="388" target="388" edge="1">
                    <mxGeometry width="50" height="50" relative="1" as="geometry">
                        <mxPoint x="1349.3600000000001" y="5609.82" as="sourcePoint"/>
                        <mxPoint x="1399.3600000000001" y="5559.82" as="targetPoint"/>
                    </mxGeometry>
                </mxCell>
                <mxCell id="526" value="13.3" style="edgeLabel;html=1;align=center;verticalAlign=middle;resizable=0;points=[];fontSize=24;" parent="389" vertex="1" connectable="0">
                    <mxGeometry x="-0.6258" relative="1" as="geometry">
                        <mxPoint x="-9" y="-25" as="offset"/>
                    </mxGeometry>
                </mxCell>
                <mxCell id="406" style="edgeStyle=none;html=1;fontSize=24;fontStyle=1;entryX=0.892;entryY=0.007;entryDx=0;entryDy=0;exitX=1;exitY=0.5;exitDx=0;exitDy=0;entryPerimeter=0;" parent="1" source="390" target="13" edge="1">
                    <mxGeometry relative="1" as="geometry">
                        <mxPoint x="150" y="3420" as="targetPoint"/>
                        <Array as="points">
                            <mxPoint x="590" y="5720"/>
                            <mxPoint x="630" y="6370"/>
                            <mxPoint x="620" y="6640"/>
                        </Array>
                        <mxPoint x="-660" y="5640" as="sourcePoint"/>
                    </mxGeometry>
                </mxCell>
                <mxCell id="427" value="&lt;font style=&quot;font-size: 36px;&quot;&gt;Room Availability and Status&amp;nbsp;Updates&lt;/font&gt;" style="edgeLabel;html=1;align=center;verticalAlign=middle;resizable=0;points=[];fontSize=24;" parent="406" vertex="1" connectable="0">
                    <mxGeometry x="-0.6587" y="-6" relative="1" as="geometry">
                        <mxPoint x="-42" y="-30" as="offset"/>
                    </mxGeometry>
                </mxCell>
                <mxCell id="505" value="&lt;font style=&quot;font-size: 48px;&quot;&gt;Room Availability&lt;br&gt;&amp;nbsp;and Status&amp;nbsp;Updates&lt;/font&gt;" style="edgeLabel;html=1;align=center;verticalAlign=middle;resizable=0;points=[];fontSize=24;" parent="406" vertex="1" connectable="0">
                    <mxGeometry x="0.9563" relative="1" as="geometry">
                        <mxPoint x="-147" y="-80" as="offset"/>
                    </mxGeometry>
                </mxCell>
                <mxCell id="438" style="edgeStyle=none;html=1;fontSize=24;exitX=1.001;exitY=0.837;exitDx=0;exitDy=0;fontStyle=1;exitPerimeter=0;entryX=0.049;entryY=-0.003;entryDx=0;entryDy=0;entryPerimeter=0;" parent="1" source="390" target="8" edge="1">
                    <mxGeometry relative="1" as="geometry">
                        <Array as="points">
                            <mxPoint x="-420" y="5780"/>
                            <mxPoint x="-430" y="6510"/>
                            <mxPoint x="-430" y="6810"/>
                        </Array>
                    </mxGeometry>
                </mxCell>
                <mxCell id="439" value="&lt;font style=&quot;font-size: 48px;&quot;&gt;Transaction Details &lt;br&gt;for Room Lodging&lt;/font&gt;" style="edgeLabel;html=1;align=center;verticalAlign=middle;resizable=0;points=[];fontSize=24;" parent="438" vertex="1" connectable="0">
                    <mxGeometry x="-0.7178" y="1" relative="1" as="geometry">
                        <mxPoint x="39" y="95" as="offset"/>
                    </mxGeometry>
                </mxCell>
                <mxCell id="652" value="Transaction Details&lt;br&gt;for Room Lodging" style="edgeLabel;html=1;align=center;verticalAlign=middle;resizable=0;points=[];fontSize=48;" vertex="1" connectable="0" parent="438">
                    <mxGeometry x="0.5786" y="6" relative="1" as="geometry">
                        <mxPoint x="-46" y="-75" as="offset"/>
                    </mxGeometry>
                </mxCell>
                <mxCell id="503" style="edgeStyle=none;html=1;entryX=0;entryY=0.75;entryDx=0;entryDy=0;fontSize=24;fillColor=#FFFFFF;fontStyle=1;exitX=1;exitY=0.25;exitDx=0;exitDy=0;" parent="1" source="390" target="494" edge="1">
                    <mxGeometry relative="1" as="geometry">
                        <Array as="points">
                            <mxPoint x="-560" y="5590"/>
                            <mxPoint x="-280" y="5530"/>
                            <mxPoint x="-210" y="5448"/>
                        </Array>
                        <mxPoint x="-610" y="5580" as="sourcePoint"/>
                    </mxGeometry>
                </mxCell>
                <mxCell id="509" value="&lt;font style=&quot;font-size: 48px;&quot;&gt;Customer unpaid balance&lt;/font&gt;" style="edgeLabel;html=1;align=center;verticalAlign=middle;resizable=0;points=[];fontSize=24;" parent="503" vertex="1" connectable="0">
                    <mxGeometry x="-0.8052" y="-3" relative="1" as="geometry">
                        <mxPoint x="246" y="-85" as="offset"/>
                    </mxGeometry>
                </mxCell>
                <mxCell id="504" style="edgeStyle=none;html=1;fontSize=24;fillColor=#FFFFFF;fontStyle=1;entryX=0.75;entryY=0;entryDx=0;entryDy=0;exitX=0.999;exitY=0.675;exitDx=0;exitDy=0;exitPerimeter=0;" parent="1" target="420" edge="1" source="390">
                    <mxGeometry relative="1" as="geometry">
                        <Array as="points">
                            <mxPoint x="350" y="5760"/>
                        </Array>
                        <mxPoint x="-650" y="5640" as="sourcePoint"/>
                    </mxGeometry>
                </mxCell>
                <mxCell id="390" value="&lt;font style=&quot;font-size: 36px;&quot;&gt;Management Verification &lt;br&gt;and Rooms Status Update&lt;/font&gt;" style="rounded=1;whiteSpace=wrap;html=1;fontSize=24;" parent="1" vertex="1">
                    <mxGeometry x="-1380" y="5580" width="730" height="230" as="geometry"/>
                </mxCell>
                <mxCell id="391" value="" style="endArrow=none;html=1;fontSize=24;exitX=0;exitY=0.25;exitDx=0;exitDy=0;entryX=1;entryY=0.25;entryDx=0;entryDy=0;fontStyle=1" parent="1" source="390" target="390" edge="1">
                    <mxGeometry width="50" height="50" relative="1" as="geometry">
                        <mxPoint x="1514.3600000000001" y="5285.0599999999995" as="sourcePoint"/>
                        <mxPoint x="1564.3600000000001" y="5235.0599999999995" as="targetPoint"/>
                    </mxGeometry>
                </mxCell>
                <mxCell id="530" value="14.0" style="edgeLabel;html=1;align=center;verticalAlign=middle;resizable=0;points=[];fontSize=24;" parent="391" vertex="1" connectable="0">
                    <mxGeometry x="-0.6009" y="4" relative="1" as="geometry">
                        <mxPoint x="-40" y="-21" as="offset"/>
                    </mxGeometry>
                </mxCell>
                <mxCell id="435" style="edgeStyle=none;html=1;entryX=0.849;entryY=0.999;entryDx=0;entryDy=0;fontSize=24;fontStyle=1;entryPerimeter=0;exitX=0.25;exitY=0;exitDx=0;exitDy=0;" parent="1" source="394" target="390" edge="1">
                    <mxGeometry relative="1" as="geometry">
                        <Array as="points"/>
                    </mxGeometry>
                </mxCell>
                <mxCell id="437" value="&lt;span style=&quot;font-size: 36px;&quot;&gt;ROOM ID&lt;/span&gt;" style="edgeLabel;html=1;align=center;verticalAlign=middle;resizable=0;points=[];fontSize=24;" parent="435" vertex="1" connectable="0">
                    <mxGeometry x="-0.1645" y="4" relative="1" as="geometry">
                        <mxPoint x="-9" y="8" as="offset"/>
                    </mxGeometry>
                </mxCell>
                <mxCell id="394" value="&lt;font style=&quot;font-size: 36px;&quot;&gt;Customer&lt;br&gt;Reservation&lt;/font&gt;" style="rounded=1;whiteSpace=wrap;html=1;fontSize=24;" parent="1" vertex="1">
                    <mxGeometry x="-830" y="6210" width="300" height="340" as="geometry"/>
                </mxCell>
                <mxCell id="395" value="" style="endArrow=none;html=1;fontSize=24;exitX=-0.021;exitY=0.198;exitDx=0;exitDy=0;entryX=1.009;entryY=0.198;entryDx=0;entryDy=0;entryPerimeter=0;exitPerimeter=0;fontStyle=1" parent="1" source="394" target="394" edge="1">
                    <mxGeometry width="50" height="50" relative="1" as="geometry">
                        <mxPoint x="1309.3600000000001" y="5179.34" as="sourcePoint"/>
                        <mxPoint x="1359.3600000000001" y="5129.34" as="targetPoint"/>
                    </mxGeometry>
                </mxCell>
                <mxCell id="531" value="&lt;font style=&quot;font-size: 36px;&quot;&gt;13.5&lt;/font&gt;" style="edgeLabel;html=1;align=center;verticalAlign=middle;resizable=0;points=[];fontSize=24;" parent="395" vertex="1" connectable="0">
                    <mxGeometry x="-0.5755" y="11" relative="1" as="geometry">
                        <mxPoint x="27" y="-16" as="offset"/>
                    </mxGeometry>
                </mxCell>
                <mxCell id="403" style="edgeStyle=none;html=1;fontSize=24;exitX=0;exitY=0.5;exitDx=0;exitDy=0;entryX=0.364;entryY=0.003;entryDx=0;entryDy=0;fontStyle=1;entryPerimeter=0;" parent="1" source="401" target="376" edge="1">
                    <mxGeometry relative="1" as="geometry">
                        <mxPoint x="-500" y="4660" as="targetPoint"/>
                        <Array as="points">
                            <mxPoint x="-1380" y="4220"/>
                        </Array>
                    </mxGeometry>
                </mxCell>
                <mxCell id="412" value="&lt;font style=&quot;font-size: 36px;&quot;&gt;If Customer has not&amp;nbsp;&lt;br&gt;Yet CHECKED-IN&lt;/font&gt;" style="edgeLabel;html=1;align=center;verticalAlign=middle;resizable=0;points=[];fontSize=24;" parent="403" vertex="1" connectable="0">
                    <mxGeometry x="-0.1211" y="-3" relative="1" as="geometry">
                        <mxPoint x="32" y="125" as="offset"/>
                    </mxGeometry>
                </mxCell>
                <mxCell id="404" style="edgeStyle=none;html=1;entryX=0.295;entryY=-0.007;entryDx=0;entryDy=0;fontSize=24;exitX=0.392;exitY=1.003;exitDx=0;exitDy=0;exitPerimeter=0;fontStyle=1;entryPerimeter=0;" parent="1" source="401" target="380" edge="1">
                    <mxGeometry relative="1" as="geometry">
                        <Array as="points"/>
                    </mxGeometry>
                </mxCell>
                <mxCell id="413" value="&lt;font style=&quot;font-size: 36px;&quot;&gt;IF Customer has&amp;nbsp;&lt;br&gt;CHECKED-IN AND&amp;nbsp;&lt;br&gt;Not yet CHECKED-OUT&lt;/font&gt;" style="edgeLabel;html=1;align=center;verticalAlign=middle;resizable=0;points=[];fontSize=24;" parent="404" vertex="1" connectable="0">
                    <mxGeometry x="-0.222" y="-2" relative="1" as="geometry">
                        <mxPoint x="112" y="31" as="offset"/>
                    </mxGeometry>
                </mxCell>
                <mxCell id="405" style="edgeStyle=none;html=1;entryX=0.173;entryY=0.001;entryDx=0;entryDy=0;fontSize=24;exitX=1;exitY=0.5;exitDx=0;exitDy=0;entryPerimeter=0;fontStyle=1" parent="1" source="401" target="388" edge="1">
                    <mxGeometry relative="1" as="geometry">
                        <Array as="points">
                            <mxPoint x="-340" y="4220"/>
                        </Array>
                    </mxGeometry>
                </mxCell>
                <mxCell id="417" value="&lt;font style=&quot;font-size: 36px;&quot;&gt;IF customer has CHECKED-IN, &lt;br&gt;NOT YET CHECKED-OUT, and&amp;nbsp;&lt;br&gt;STILL HAS STAY DURATION TIME&amp;nbsp;&lt;/font&gt;" style="edgeLabel;html=1;align=center;verticalAlign=middle;resizable=0;points=[];fontSize=24;" parent="405" vertex="1" connectable="0">
                    <mxGeometry x="-0.2175" y="-2" relative="1" as="geometry">
                        <mxPoint x="202" y="144" as="offset"/>
                    </mxGeometry>
                </mxCell>
                <mxCell id="401" value="&lt;font style=&quot;font-size: 36px;&quot;&gt;Use Registration Card for Room Lodging&amp;nbsp;&lt;/font&gt;" style="rounded=1;whiteSpace=wrap;html=1;fontSize=24;" parent="1" vertex="1">
                    <mxGeometry x="-1275" y="4080" width="838.52" height="270" as="geometry"/>
                </mxCell>
                <mxCell id="402" value="" style="endArrow=none;html=1;fontSize=24;exitX=0.002;exitY=0.277;exitDx=0;exitDy=0;exitPerimeter=0;entryX=1;entryY=0.292;entryDx=0;entryDy=0;entryPerimeter=0;fontStyle=1" parent="1" source="401" target="401" edge="1">
                    <mxGeometry width="50" height="50" relative="1" as="geometry">
                        <mxPoint x="-510" y="4320" as="sourcePoint"/>
                        <mxPoint x="-20" y="4320" as="targetPoint"/>
                    </mxGeometry>
                </mxCell>
                <mxCell id="487" value="&lt;font style=&quot;font-size: 48px;&quot;&gt;12.0&lt;/font&gt;" style="edgeLabel;html=1;align=center;verticalAlign=middle;resizable=0;points=[];" parent="402" vertex="1" connectable="0">
                    <mxGeometry x="0.1222" y="-1" relative="1" as="geometry">
                        <mxPoint x="-383" y="-38" as="offset"/>
                    </mxGeometry>
                </mxCell>
                <mxCell id="428" style="edgeStyle=none;html=1;entryX=0.5;entryY=1;entryDx=0;entryDy=0;fontSize=24;fontStyle=1" parent="1" source="407" target="384" edge="1">
                    <mxGeometry relative="1" as="geometry"/>
                </mxCell>
                <mxCell id="429" value="&lt;font style=&quot;font-size: 36px;&quot;&gt;PURPOSE &lt;br&gt;OF&lt;br&gt;CONTACT&amp;nbsp;&lt;/font&gt;" style="edgeLabel;html=1;align=center;verticalAlign=middle;resizable=0;points=[];fontSize=24;" parent="428" vertex="1" connectable="0">
                    <mxGeometry x="-0.3549" relative="1" as="geometry">
                        <mxPoint x="-8" y="-47" as="offset"/>
                    </mxGeometry>
                </mxCell>
                <mxCell id="407" value="&lt;font style=&quot;font-size: 48px;&quot;&gt;Contact Management for Room Lodging Changes&lt;/font&gt;" style="rounded=1;whiteSpace=wrap;html=1;fontSize=24;arcSize=17;" parent="1" vertex="1">
                    <mxGeometry x="-1530" y="6830" width="850" height="400" as="geometry"/>
                </mxCell>
                <mxCell id="408" value="" style="endArrow=none;html=1;fontSize=24;entryX=1;entryY=0.25;entryDx=0;entryDy=0;fontStyle=1;exitX=0;exitY=0.25;exitDx=0;exitDy=0;" parent="1" source="407" target="407" edge="1">
                    <mxGeometry width="50" height="50" relative="1" as="geometry">
                        <mxPoint x="10" y="4280" as="sourcePoint"/>
                        <mxPoint x="1129.3600000000001" y="5109.34" as="targetPoint"/>
                    </mxGeometry>
                </mxCell>
                <mxCell id="527" value="&lt;font style=&quot;font-size: 48px;&quot;&gt;12.1&lt;/font&gt;" style="edgeLabel;html=1;align=center;verticalAlign=middle;resizable=0;points=[];fontSize=24;" parent="408" vertex="1" connectable="0">
                    <mxGeometry x="-0.5152" y="3" relative="1" as="geometry">
                        <mxPoint x="-30" y="-37" as="offset"/>
                    </mxGeometry>
                </mxCell>
                <mxCell id="380" value="&lt;font style=&quot;font-size: 36px;&quot;&gt;Customer &lt;br&gt;Check-out&lt;/font&gt;" style="rounded=1;whiteSpace=wrap;html=1;fontSize=24;" parent="1" vertex="1">
                    <mxGeometry x="-1110" y="4630" width="545" height="230" as="geometry"/>
                </mxCell>
                <mxCell id="421" value="" style="endArrow=none;html=1;fontSize=24;exitX=0.002;exitY=0.156;exitDx=0;exitDy=0;entryX=0.997;entryY=0.156;entryDx=0;entryDy=0;entryPerimeter=0;exitPerimeter=0;fontStyle=1" parent="1" source="420" target="420" edge="1">
                    <mxGeometry width="50" height="50" relative="1" as="geometry">
                        <mxPoint x="1309.3600000000001" y="5009.82" as="sourcePoint"/>
                        <mxPoint x="1359.3600000000001" y="4959.82" as="targetPoint"/>
                    </mxGeometry>
                </mxCell>
                <mxCell id="434" style="edgeStyle=none;html=1;fontSize=24;entryX=1;entryY=0.5;entryDx=0;entryDy=0;fontStyle=1" parent="1" source="420" target="394" edge="1">
                    <mxGeometry relative="1" as="geometry"/>
                </mxCell>
                <mxCell id="492" value="&lt;font style=&quot;font-size: 36px;&quot;&gt;Official Room &lt;br&gt;Reservation&lt;br&gt;Transaction&amp;nbsp;&amp;nbsp;&lt;/font&gt;" style="edgeLabel;html=1;align=center;verticalAlign=middle;resizable=0;points=[];fontSize=24;" parent="434" vertex="1" connectable="0">
                    <mxGeometry x="-0.2139" y="-1" relative="1" as="geometry">
                        <mxPoint x="5" y="13" as="offset"/>
                    </mxGeometry>
                </mxCell>
                <mxCell id="420" value="&lt;font style=&quot;font-size: 36px;&quot;&gt;Partial 50% - Upfront 100% &lt;br&gt;Payment for&amp;nbsp;Room Reservation&amp;nbsp;&lt;/font&gt;" style="rounded=1;whiteSpace=wrap;html=1;fontSize=24;" parent="1" vertex="1">
                    <mxGeometry x="-60" y="6040" width="590" height="270" as="geometry"/>
                </mxCell>
                <mxCell id="424" value="" style="endArrow=none;html=1;fontSize=24;exitX=1;exitY=0.25;exitDx=0;exitDy=0;entryX=0;entryY=0.25;entryDx=0;entryDy=0;fontStyle=1" parent="1" source="420" target="420" edge="1">
                    <mxGeometry width="50" height="50" relative="1" as="geometry">
                        <mxPoint x="1040" y="4270" as="sourcePoint"/>
                        <mxPoint x="770" y="4140" as="targetPoint"/>
                    </mxGeometry>
                </mxCell>
                <mxCell id="511" value="&lt;font style=&quot;font-size: 48px;&quot;&gt;11.2&lt;/font&gt;" style="edgeLabel;html=1;align=center;verticalAlign=middle;resizable=0;points=[];fontSize=24;" parent="424" vertex="1" connectable="0">
                    <mxGeometry x="0.8508" relative="1" as="geometry">
                        <mxPoint x="36" y="-37" as="offset"/>
                    </mxGeometry>
                </mxCell>
                <mxCell id="493" value="" style="endArrow=none;html=1;fontSize=24;exitX=0.002;exitY=0.156;exitDx=0;exitDy=0;entryX=0.997;entryY=0.156;entryDx=0;entryDy=0;entryPerimeter=0;exitPerimeter=0;fontStyle=1" parent="1" source="494" target="494" edge="1">
                    <mxGeometry width="50" height="50" relative="1" as="geometry">
                        <mxPoint x="1799.3600000000001" y="5229.82" as="sourcePoint"/>
                        <mxPoint x="1849.3600000000001" y="5179.82" as="targetPoint"/>
                    </mxGeometry>
                </mxCell>
                <mxCell id="498" style="edgeStyle=none;html=1;fontSize=24;entryX=1;entryY=0.5;entryDx=0;entryDy=0;exitX=0.75;exitY=1;exitDx=0;exitDy=0;fontStyle=1" parent="1" source="494" target="8" edge="1">
                    <mxGeometry relative="1" as="geometry">
                        <mxPoint x="891.5150035511359" y="3965" as="targetPoint"/>
                        <Array as="points">
                            <mxPoint x="770" y="6230"/>
                            <mxPoint x="750" y="7160"/>
                        </Array>
                    </mxGeometry>
                </mxCell>
                <mxCell id="499" value="&lt;font style=&quot;font-size: 48px;&quot;&gt;Customer Transaction &lt;br&gt;Payment Details&lt;/font&gt;" style="edgeLabel;html=1;align=center;verticalAlign=middle;resizable=0;points=[];fontSize=24;" parent="498" vertex="1" connectable="0">
                    <mxGeometry x="-0.3023" y="3" relative="1" as="geometry">
                        <mxPoint x="-180" y="-590" as="offset"/>
                    </mxGeometry>
                </mxCell>
                <mxCell id="651" value="Customer Transaction&lt;br&gt;Payment Details" style="edgeLabel;html=1;align=center;verticalAlign=middle;resizable=0;points=[];fontSize=48;" vertex="1" connectable="0" parent="498">
                    <mxGeometry x="0.888" y="-4" relative="1" as="geometry">
                        <mxPoint x="161" y="85" as="offset"/>
                    </mxGeometry>
                </mxCell>
                <mxCell id="532" style="edgeStyle=none;html=1;fontSize=24;fillColor=#FFFFFF;fontStyle=1;entryX=0.819;entryY=0;entryDx=0;entryDy=0;exitX=0;exitY=0.5;exitDx=0;exitDy=0;entryPerimeter=0;" parent="1" source="494" target="390" edge="1">
                    <mxGeometry relative="1" as="geometry">
                        <mxPoint x="1300" y="5160" as="targetPoint"/>
                        <Array as="points">
                            <mxPoint x="-290" y="5350"/>
                            <mxPoint x="-450" y="5354"/>
                            <mxPoint x="-782" y="5480"/>
                        </Array>
                    </mxGeometry>
                </mxCell>
                <mxCell id="533" value="&lt;font style=&quot;font-size: 36px;&quot;&gt;Customer Transaction &lt;br&gt;Payment Details&lt;/font&gt;" style="edgeLabel;html=1;align=center;verticalAlign=middle;resizable=0;points=[];fontSize=24;" parent="532" vertex="1" connectable="0">
                    <mxGeometry x="-0.8582" y="2" relative="1" as="geometry">
                        <mxPoint x="-372" y="14" as="offset"/>
                    </mxGeometry>
                </mxCell>
                <mxCell id="494" value="&lt;font style=&quot;font-size: 48px;&quot;&gt;Full Payment of Room &lt;br&gt;Lodging Direct-Check-in&amp;nbsp;&lt;/font&gt;" style="rounded=1;whiteSpace=wrap;html=1;fontSize=24;" parent="1" vertex="1">
                    <mxGeometry x="-50" y="5180" width="865" height="330" as="geometry"/>
                </mxCell>
                <mxCell id="495" value="" style="endArrow=none;html=1;fontSize=24;exitX=1;exitY=0.25;exitDx=0;exitDy=0;entryX=0;entryY=0.25;entryDx=0;entryDy=0;fontStyle=1" parent="1" source="494" target="494" edge="1">
                    <mxGeometry width="50" height="50" relative="1" as="geometry">
                        <mxPoint x="1530" y="4490" as="sourcePoint"/>
                        <mxPoint x="1260" y="4360" as="targetPoint"/>
                    </mxGeometry>
                </mxCell>
                <mxCell id="512" value="&lt;font style=&quot;font-size: 36px;&quot;&gt;11.0&lt;/font&gt;" style="edgeLabel;html=1;align=center;verticalAlign=middle;resizable=0;points=[];fontSize=24;" parent="495" vertex="1" connectable="0">
                    <mxGeometry x="0.7806" relative="1" as="geometry">
                        <mxPoint y="-22" as="offset"/>
                    </mxGeometry>
                </mxCell>
                <mxCell id="501" value="" style="endArrow=none;html=1;fontSize=24;exitX=0;exitY=0.25;exitDx=0;exitDy=0;entryX=1;entryY=0.25;entryDx=0;entryDy=0;fontStyle=1" parent="1" source="380" target="380" edge="1">
                    <mxGeometry width="50" height="50" relative="1" as="geometry">
                        <mxPoint x="-510" y="4702.5" as="sourcePoint"/>
                        <mxPoint x="-350" y="4702.5" as="targetPoint"/>
                    </mxGeometry>
                </mxCell>
                <mxCell id="525" value="&lt;font style=&quot;font-size: 36px;&quot;&gt;13.2&lt;/font&gt;" style="edgeLabel;html=1;align=center;verticalAlign=middle;resizable=0;points=[];fontSize=24;" parent="501" vertex="1" connectable="0">
                    <mxGeometry x="-0.6683" y="-1" relative="1" as="geometry">
                        <mxPoint x="-10" y="-28" as="offset"/>
                    </mxGeometry>
                </mxCell>
                <mxCell id="510" value="&lt;font style=&quot;font-size: 36px;&quot;&gt;Customer &lt;br&gt;unpaid &lt;br&gt;balance&lt;/font&gt;" style="edgeLabel;html=1;align=center;verticalAlign=middle;resizable=0;points=[];fontSize=24;" parent="1" vertex="1" connectable="0">
                    <mxGeometry x="390.0016843219021" y="5659.99504036629" as="geometry">
                        <mxPoint x="-33" y="239" as="offset"/>
                    </mxGeometry>
                </mxCell>
                <mxCell id="649" style="edgeStyle=none;html=1;entryX=0.5;entryY=0;entryDx=0;entryDy=0;fontSize=48;" edge="1" parent="1" source="646" target="494">
                    <mxGeometry relative="1" as="geometry">
                        <Array as="points">
                            <mxPoint x="433" y="5080"/>
                        </Array>
                    </mxGeometry>
                </mxCell>
                <mxCell id="650" value="&lt;font style=&quot;font-size: 48px;&quot;&gt;Overall Cost&amp;nbsp;&lt;br style=&quot;&quot;&gt;of room lodging&lt;/font&gt;" style="edgeLabel;html=1;align=center;verticalAlign=middle;resizable=0;points=[];fontSize=48;" vertex="1" connectable="0" parent="649">
                    <mxGeometry x="-0.3483" y="1" relative="1" as="geometry">
                        <mxPoint x="30" y="235" as="offset"/>
                    </mxGeometry>
                </mxCell>
                <mxCell id="646" value="&lt;font style=&quot;font-size: 48px;&quot;&gt;Transaction End and calculate the total cost of transactions&lt;br&gt;or start a new Transactions&lt;/font&gt;" style="rounded=1;whiteSpace=wrap;html=1;fontSize=24;" vertex="1" parent="1">
                    <mxGeometry x="30" y="3820" width="790" height="425" as="geometry"/>
                </mxCell>
                <mxCell id="647" value="" style="endArrow=none;html=1;fontSize=24;exitX=0;exitY=0.25;exitDx=0;exitDy=0;entryX=1;entryY=0.25;entryDx=0;entryDy=0;fontStyle=1" edge="1" parent="1" source="646" target="646">
                    <mxGeometry width="50" height="50" relative="1" as="geometry">
                        <mxPoint x="929.36" y="4585" as="sourcePoint"/>
                        <mxPoint x="979.36" y="4535" as="targetPoint"/>
                    </mxGeometry>
                </mxCell>
                <mxCell id="648" value="&lt;font style=&quot;font-size: 36px;&quot;&gt;10.0&lt;/font&gt;" style="edgeLabel;html=1;align=center;verticalAlign=middle;resizable=0;points=[];fontSize=24;" vertex="1" connectable="0" parent="647">
                    <mxGeometry x="-0.6555" y="3" relative="1" as="geometry">
                        <mxPoint x="-11" y="-32" as="offset"/>
                    </mxGeometry>
                </mxCell>
            </root>
        </mxGraphModel>
    </diagram>
</mxfile>